# xmcd
#
# Track frame offsets:
# 150
# 14917
# 44684
# 69064
# 94142
# 123754
# 146993
# 174662
# 201587
# 222554
# 251541
# 274862
#
# Disc length: 3906 seconds
#
#
# Revision: 0
# Processed by: cddbd v1.5.1PL0 Copyright (c) Steve Scherf et al.
# Submitted via: FreeRIP 2.51 
#
DISCID=c20f400c
DTITLE=Cro Cro - Face Reality
DYEAR=2004
DGENRE=Bebob
TTITLE0=Intro
TTITLE1=Face Reality
TTITLE2=We Are Free
TTITLE3=Is Only Carib
TTITLE4=Baptiset Better
TTITLE5=Support Commentary Calypso
TTITLE6=Kanchan and Babla
TTITLE7=5 Days
TTITLE8=BLack Identity
TTITLE9=Dole Chadee Say
TTITLE10=Put Down De Gun
TTITLE11=Suitcase
EXTD=
EXTT0=
EXTT1=
EXTT2=
EXTT3=
EXTT4=
EXTT5=
EXTT6=
EXTT7=
EXTT8=
EXTT9=
EXTT10=
EXTT11=
PLAYORDER=
